<svg width="187" height="187" viewBox="0 0 187 187" fill="none" xmlns="http://www.w3.org/2000/svg">
<path d="M108.896 93.1452C108.896 93.4007 108.89 93.6568 108.877 93.9118C108.864 94.1674 108.846 94.4224 108.821 94.677C108.796 94.9316 108.764 95.1857 108.727 95.4383C108.689 95.6914 108.646 95.9435 108.596 96.1942C108.546 96.4454 108.49 96.6946 108.428 96.9429C108.365 97.1912 108.297 97.4375 108.223 97.6823C108.149 97.9272 108.069 98.1696 107.983 98.4106C107.896 98.6516 107.804 98.8901 107.707 99.1262C107.608 99.3628 107.505 99.5965 107.396 99.8277C107.286 100.059 107.171 100.287 107.051 100.513C106.93 100.739 106.804 100.961 106.673 101.18C106.541 101.4 106.405 101.616 106.262 101.828C106.12 102.041 105.973 102.25 105.821 102.456C105.669 102.661 105.511 102.863 105.349 103.06C105.187 103.258 105.019 103.452 104.848 103.641C104.676 103.831 104.5 104.016 104.319 104.197C104.138 104.378 103.953 104.554 103.764 104.726C103.574 104.898 103.38 105.065 103.183 105.227C102.985 105.389 102.784 105.546 102.578 105.699C102.373 105.852 102.164 105.999 101.951 106.141C101.739 106.283 101.522 106.419 101.303 106.551C101.084 106.683 100.861 106.809 100.636 106.929C100.41 107.05 100.182 107.165 99.9508 107.274C99.7196 107.384 99.4859 107.487 99.2498 107.585C99.0132 107.683 98.7746 107.775 98.5341 107.861C98.2932 107.947 98.0503 108.028 97.8059 108.102C97.561 108.176 97.3147 108.244 97.0665 108.306C96.8182 108.369 96.569 108.424 96.3183 108.474C96.0671 108.525 95.8154 108.568 95.5623 108.606C95.3097 108.643 95.0556 108.675 94.801 108.699C94.547 108.725 94.2919 108.744 94.0363 108.756C93.7808 108.768 93.5253 108.775 93.2697 108.775C93.0137 108.775 92.7581 108.768 92.5031 108.756C92.2475 108.744 91.9925 108.725 91.7379 108.699C91.4833 108.675 91.2297 108.643 90.9766 108.606C90.724 108.568 90.4718 108.525 90.2211 108.474C89.9705 108.424 89.7207 108.369 89.473 108.306C89.2247 108.244 88.9784 108.176 88.7335 108.102C88.4887 108.028 88.2463 107.947 88.0053 107.861C87.7643 107.775 87.5258 107.683 87.2897 107.585C87.0535 107.487 86.8199 107.384 86.5886 107.274C86.3574 107.165 86.129 107.05 85.9036 106.929C85.6782 106.809 85.4557 106.683 85.2361 106.551C85.017 106.419 84.8008 106.283 84.588 106.141C84.3757 105.999 84.1663 105.852 83.9613 105.699C83.7558 105.546 83.5541 105.389 83.3564 105.227C83.1587 105.065 82.9653 104.898 82.7758 104.726C82.5864 104.554 82.4013 104.378 82.2201 104.197C82.0393 104.016 81.863 103.831 81.6915 103.641C81.5195 103.452 81.3528 103.258 81.1906 103.06C81.0283 102.863 80.8709 102.661 80.7184 102.456C80.5663 102.25 80.4191 102.041 80.2767 101.828C80.1349 101.616 79.9979 101.4 79.8667 101.18C79.735 100.961 79.6092 100.739 79.4887 100.513C79.3678 100.287 79.2531 100.059 79.1438 99.8277C79.0345 99.5965 78.9305 99.3628 78.8329 99.1262C78.7352 98.8901 78.6429 98.6516 78.5569 98.4106C78.4704 98.1696 78.3903 97.9272 78.3164 97.6823C78.2421 97.4375 78.1736 97.1912 78.1119 96.9429C78.0497 96.6946 77.9934 96.4454 77.9438 96.1942C77.8938 95.9435 77.85 95.6914 77.8126 95.4383C77.7752 95.1857 77.7436 94.9316 77.7189 94.677C77.6936 94.4224 77.6746 94.1674 77.662 93.9118C77.6499 93.6568 77.6436 93.4007 77.6436 93.1452C77.6436 92.8892 77.6499 92.6336 77.662 92.3781C77.6746 92.1225 77.6936 91.8679 77.7189 91.6134C77.7436 91.3588 77.7752 91.1047 77.8126 90.8516C77.85 90.599 77.8938 90.3468 77.9438 90.0961C77.9934 89.845 78.0497 89.5957 78.1119 89.3475C78.1736 89.0992 78.2421 88.8529 78.3164 88.608C78.3903 88.3632 78.4704 88.1203 78.5569 87.8798C78.6429 87.6388 78.7352 87.4003 78.8329 87.1637C78.9305 86.9276 79.0345 86.6939 79.1438 86.4626C79.2531 86.2314 79.3678 86.003 79.4887 85.7771C79.6092 85.5517 79.735 85.3292 79.8667 85.1096C79.9979 84.8905 80.1349 84.6743 80.2767 84.4615C80.4191 84.2492 80.5663 84.0398 80.7184 83.8343C80.8709 83.6293 81.0283 83.4277 81.1906 83.2299C81.3528 83.0322 81.5195 82.8384 81.6915 82.6489C81.863 82.4594 82.0393 82.2743 82.2201 82.0931C82.4013 81.9124 82.5864 81.736 82.7758 81.5645C82.9653 81.3925 83.1587 81.2254 83.3564 81.0631C83.5541 80.9009 83.7558 80.7435 83.9613 80.5914C84.1663 80.4388 84.3757 80.2916 84.588 80.1493C84.8008 80.0074 85.017 79.8704 85.2361 79.7393C85.4557 79.6076 85.6782 79.4818 85.9036 79.3608C86.129 79.2403 86.3574 79.1252 86.5886 79.0159C86.8199 78.9065 87.0535 78.8031 87.2897 78.7049C87.5258 78.6073 87.7643 78.5155 88.0053 78.429C88.2463 78.343 88.4887 78.2628 88.7335 78.1885C88.9784 78.1142 89.2247 78.0461 89.473 77.984C89.7207 77.9218 89.9705 77.8654 90.2211 77.8159C90.4718 77.7658 90.724 77.7221 90.9766 77.6847C91.2297 77.6473 91.4833 77.6157 91.7379 77.5904C91.9925 77.5657 92.2475 77.5467 92.5031 77.5341C92.7581 77.5215 93.0137 77.5156 93.2697 77.5156C93.5253 77.5156 93.7808 77.5215 94.0363 77.5341C94.2919 77.5467 94.547 77.5657 94.801 77.5904C95.0556 77.6157 95.3097 77.6473 95.5623 77.6847C95.8154 77.7221 96.0671 77.7658 96.3183 77.8159C96.569 77.8654 96.8182 77.9218 97.0665 77.984C97.3147 78.0461 97.561 78.1142 97.8059 78.1885C98.0503 78.2628 98.2932 78.343 98.5341 78.429C98.7746 78.5155 99.0132 78.6073 99.2498 78.7049C99.4859 78.8031 99.7196 78.9065 99.9508 79.0159C100.182 79.1252 100.41 79.2403 100.636 79.3608C100.861 79.4813 101.084 79.6076 101.303 79.7393C101.522 79.8704 101.739 80.0074 101.951 80.1493C102.164 80.2916 102.373 80.4388 102.578 80.5914C102.784 80.7435 102.985 80.9009 103.183 81.0631C103.38 81.2254 103.574 81.3925 103.764 81.564C103.953 81.736 104.138 81.9124 104.319 82.0931C104.5 82.2743 104.676 82.4594 104.848 82.6489C105.019 82.8384 105.187 83.0322 105.349 83.2299C105.511 83.4277 105.669 83.6293 105.821 83.8343C105.973 84.0398 106.12 84.2492 106.262 84.4615C106.405 84.6743 106.541 84.8905 106.673 85.1101C106.804 85.3292 106.93 85.5517 107.051 85.7771C107.171 86.003 107.286 86.2314 107.396 86.4626C107.505 86.6939 107.608 86.9276 107.707 87.1637C107.804 87.4003 107.896 87.6388 107.983 87.8798C108.069 88.1203 108.149 88.3632 108.223 88.608C108.297 88.8529 108.365 89.0992 108.428 89.3475C108.49 89.5957 108.546 89.845 108.596 90.0961C108.646 90.3468 108.689 90.599 108.727 90.8516C108.764 91.1047 108.796 91.3588 108.821 91.6134C108.846 91.8679 108.864 92.1225 108.877 92.3781C108.89 92.6336 108.896 92.8892 108.896 93.1452Z" fill="#00D8FF"/>
<mask id="mask0_227_694" style="mask-type:luminance" maskUnits="userSpaceOnUse" x="5" y="19" width="176" height="149">
<path d="M5.77344 19.0304H180.765V167.655H5.77344V19.0304Z" fill="white"/>
</mask>
<g mask="url(#mask0_227_694)">
<path d="M93.2703 61.3652C114.251 61.3652 133.741 64.3764 148.437 69.4368C166.143 75.5339 177.029 84.7753 177.029 93.1437C177.029 101.864 165.492 111.682 146.478 117.983C132.103 122.747 113.187 125.234 93.2703 125.234C72.8515 125.234 53.516 122.9 38.9786 117.931C20.5871 111.643 9.50928 101.698 9.50928 93.1437C9.50928 84.8433 19.9036 75.6729 37.3608 69.585C52.111 64.4415 72.0819 61.3652 93.2689 61.3652H93.2703Z" stroke="#00D8FF" stroke-width="7.47646"/>
</g>
<mask id="mask1_227_694" style="mask-type:luminance" maskUnits="userSpaceOnUse" x="5" y="11" width="176" height="165">
<path d="M5.77295 11.3429H180.764V175.234H5.77295V11.3429Z" fill="white"/>
</mask>
<g mask="url(#mask1_227_694)">
<path d="M65.6131 77.3429C76.0943 59.1647 88.4387 43.7824 100.163 33.5762C114.289 21.2809 127.729 16.4653 134.978 20.6454C142.53 25.0018 145.269 39.9041 141.228 59.5276C138.175 74.3629 130.876 91.9945 120.926 109.252C110.726 126.944 99.0448 142.532 87.4797 152.642C72.8461 165.437 58.6983 170.067 51.2913 165.793C44.1021 161.65 41.3533 148.059 44.8017 129.893C47.7157 114.543 55.0283 95.7028 65.6087 77.3463L65.6131 77.3429Z" stroke="#00D8FF" stroke-width="7.47646"/>
<path d="M65.6381 109.297C55.1287 91.1393 47.971 72.758 44.9836 57.501C41.388 39.1193 43.9304 25.0652 51.1711 20.8716C58.7165 16.5025 72.9921 21.5707 87.9697 34.8726C99.2943 44.9298 110.923 60.0579 120.9 77.2971C131.13 94.9724 138.798 112.88 141.78 127.949C145.555 147.021 142.5 161.591 135.098 165.878C127.916 170.037 114.774 165.634 100.76 153.572C88.9199 143.381 76.252 127.634 65.6371 109.294L65.6381 109.297Z" stroke="#00D8FF" stroke-width="7.47646"/>
</g>
</svg>
