<svg width="187" height="187" viewBox="0 0 187 187" fill="none" xmlns="http://www.w3.org/2000/svg">
<mask id="mask0_227_718" style="mask-type:luminance" maskUnits="userSpaceOnUse" x="30" y="39" width="127" height="144">
<path d="M30.2217 39.1769H156.404V182.202H30.2217V39.1769Z" fill="white"/>
</mask>
<g mask="url(#mask0_227_718)">
<path d="M156.37 39.2739L144.883 167.887L93.2474 182.193L41.7555 167.907L30.2812 39.2739L156.367 39.272H156.372L156.37 39.2739Z" fill="#E44D26"/>
</g>
<path d="M93.3267 171.26L135.052 159.701L144.868 49.7947L93.3267 49.7933V171.26Z" fill="#F16529"/>
<path d="M70.9964 81.3466H93.3269V65.5688H53.7451L54.1226 69.8023L58.0024 113.278H93.3269V97.5047H72.4388L70.9964 81.3466Z" fill="#EBEBEB"/>
<path d="M74.5542 121.166H58.708L60.9195 145.939L93.2528 154.909L93.3271 154.89V138.475L93.2581 138.495L75.678 133.747L74.5542 121.166Z" fill="#EBEBEB"/>
<path d="M93.2725 113.276H112.712L110.878 133.737L93.2725 138.489V154.899L125.631 145.938L125.869 143.271L129.581 101.737L129.967 97.5033H93.2725V113.276Z" fill="white"/>
<path d="M93.2725 81.3067V81.3466H131.4L131.716 77.7996L132.437 69.8023L132.813 65.5688H93.2725V81.3067Z" fill="white"/>
</svg>
