<svg width="187" height="187" viewBox="0 0 187 187" fill="none" xmlns="http://www.w3.org/2000/svg">
<mask id="mask0_227_707" style="mask-type:luminance" maskUnits="userSpaceOnUse" x="30" y="39" width="126" height="143">
<path d="M30.9683 39.9247H155.568V181.208H30.9683V39.9247Z" fill="white"/>
</mask>
<g mask="url(#mask0_227_707)">
<path d="M93.2031 181.2L42.3578 167.079L31.0278 39.9305L155.53 39.9286L144.193 167.058L93.2055 181.198L93.2031 181.2Z" fill="#0277BD"/>
</g>
<path d="M134.483 158.965L144.176 50.3276L93.2817 50.3261V170.39L134.483 158.964V158.965Z" fill="#039BE5"/>
<path d="M57.0044 97.4846L58.4011 113.075H93.2816V97.4846H57.0044Z" fill="#EBEBEB"/>
<path d="M54.1968 65.9182L55.6135 81.5142H93.2816V65.9182H54.1968Z" fill="#EBEBEB"/>
<path d="M93.2815 137.983L93.2134 138.002L75.8543 133.31L74.7442 120.873H59.0972L61.281 145.36L93.2086 154.228L93.2815 154.208V137.983Z" fill="#EBEBEB"/>
<path d="M129.462 97.4858L132.273 65.9182H93.2285V81.5142H115.191L113.776 97.4858H93.2285V113.077H112.424L110.613 133.302L93.2285 137.998V154.219L125.181 145.362L125.416 142.725L129.081 101.67L129.462 97.4858Z" fill="white"/>
</svg>
