<svg width="29" height="30" viewBox="0 0 29 30" fill="none" xmlns="http://www.w3.org/2000/svg">
<path d="M26.727 9.49449C26.1905 9.66056 25.6201 9.72505 25.025 9.69603C22.3071 9.57027 20.0223 7.1791 19.9021 4.33489C19.8759 3.71412 19.936 3.11756 20.0948 2.55807C20.1626 2.31783 20.0687 2.05986 19.8483 1.9615C17.5095 0.926363 14.8331 0.550685 12.0304 1.05858C7.08164 1.95345 2.90089 5.73122 1.34073 10.7247C0.156727 14.5138 0.521978 18.2851 1.90794 21.405C2.23169 22.1144 2.23178 22.9368 2.00053 23.6946L0.705391 27.7239C0.298391 28.9896 1.45159 30.1973 2.66334 29.7716L6.51751 28.4172C7.24209 28.1753 8.02822 28.1753 8.70655 28.5139C11.6881 29.9634 15.2897 30.3456 18.9111 29.1105C23.6871 27.4804 27.3008 23.1093 28.1596 17.932C28.6452 15.0007 28.2874 12.1984 27.2961 9.75085C27.2036 9.52189 26.9567 9.42354 26.727 9.49449ZM16.0419 19.783H8.33356C7.69531 19.783 7.17731 19.2412 7.17731 18.5737C7.17731 17.9062 7.69531 17.3644 8.33356 17.3644H16.0419C16.6801 17.3644 17.1981 17.9062 17.1981 18.5737C17.1981 19.2412 16.6801 19.783 16.0419 19.783ZM20.6669 13.3335H8.33356C7.69531 13.3335 7.17731 12.7917 7.17731 12.1242C7.17731 11.4567 7.69531 10.915 8.33356 10.915H20.6669C21.3051 10.915 21.8231 11.4567 21.8231 12.1242C21.8231 12.7917 21.3051 13.3335 20.6669 13.3335ZM22.2086 4.06239C22.2086 2.28072 23.5899 0.837648 25.2919 0.837648C26.9939 0.837648 28.3752 2.28072 28.3752 4.06239C28.3752 5.84405 26.9939 7.28712 25.2919 7.28712C23.5899 7.28712 22.2086 5.84405 22.2086 4.06239Z" fill="#FF5600"/>
</svg>
