<svg width="17" height="22" viewBox="0 0 17 22" fill="none" xmlns="http://www.w3.org/2000/svg">
<path d="M10.5 2.5C10.5 3.603 9.603 4.5 8.5 4.5C7.397 4.5 6.5 3.603 6.5 2.5C6.5 1.397 7.397 0.5 8.5 0.5C9.603 0.5 10.5 1.397 10.5 2.5ZM14.5 4.5C15.603 4.5 16.5 3.603 16.5 2.5C16.5 1.397 15.603 0.5 14.5 0.5C13.397 0.5 12.5 1.397 12.5 2.5C12.5 3.603 13.397 4.5 14.5 4.5ZM2.5 0.5C1.397 0.5 0.5 1.397 0.5 2.5C0.5 3.603 1.397 4.5 2.5 4.5C3.603 4.5 4.5 3.603 4.5 2.5C4.5 1.397 3.603 0.5 2.5 0.5ZM8.5 6.16699C7.397 6.16699 6.5 7.06399 6.5 8.16699C6.5 9.26999 7.397 10.167 8.5 10.167C9.603 10.167 10.5 9.26999 10.5 8.16699C10.5 7.06399 9.603 6.16699 8.5 6.16699ZM14.5 6.16699C13.397 6.16699 12.5 7.06399 12.5 8.16699C12.5 9.26999 13.397 10.167 14.5 10.167C15.603 10.167 16.5 9.26999 16.5 8.16699C16.5 7.06399 15.603 6.16699 14.5 6.16699ZM2.5 6.16699C1.397 6.16699 0.5 7.06399 0.5 8.16699C0.5 9.26999 1.397 10.167 2.5 10.167C3.603 10.167 4.5 9.26999 4.5 8.16699C4.5 7.06399 3.603 6.16699 2.5 6.16699ZM8.5 11.833C7.397 11.833 6.5 12.73 6.5 13.833C6.5 14.936 7.397 15.833 8.5 15.833C9.603 15.833 10.5 14.936 10.5 13.833C10.5 12.73 9.603 11.833 8.5 11.833ZM14.5 11.833C13.397 11.833 12.5 12.73 12.5 13.833C12.5 14.936 13.397 15.833 14.5 15.833C15.603 15.833 16.5 14.936 16.5 13.833C16.5 12.73 15.603 11.833 14.5 11.833ZM2.5 11.833C1.397 11.833 0.5 12.73 0.5 13.833C0.5 14.936 1.397 15.833 2.5 15.833C3.603 15.833 4.5 14.936 4.5 13.833C4.5 12.73 3.603 11.833 2.5 11.833ZM8.5 17.5C7.397 17.5 6.5 18.397 6.5 19.5C6.5 20.603 7.397 21.5 8.5 21.5C9.603 21.5 10.5 20.603 10.5 19.5C10.5 18.397 9.603 17.5 8.5 17.5Z" fill="black"/>
</svg>
