<svg width="100" height="100" viewBox="0 0 100 100" fill="none" xmlns="http://www.w3.org/2000/svg">
<g clip-path="url(#clip0_34_884)">
<path d="M24.9684 39.2025V59.2152L32.1456 55.0633V35.057L24.9684 39.2025ZM24.9684 39.2025V59.2152L32.1456 55.0633V35.057L24.9684 39.2025ZM24.9684 39.2025V59.2152L32.1456 55.0633V35.057L24.9684 39.2025ZM24.9684 39.2025V59.2152L32.1456 55.0633V35.057L24.9684 39.2025ZM24.9684 39.2025V59.2152L32.1456 55.0633V35.057L24.9684 39.2025ZM24.9684 39.2025V59.2152L32.1456 55.0633V35.057L24.9684 39.2025ZM24.9684 39.2025V59.2152L32.1456 55.0633V35.057L24.9684 39.2025ZM24.9684 39.2025V59.2152L32.1456 55.0633V35.057L24.9684 39.2025ZM24.9684 39.2025V59.2152L32.1456 55.0633V35.057L24.9684 39.2025ZM24.9684 39.2025V59.2152L32.1456 55.0633V35.057L24.9684 39.2025ZM24.9684 39.2025V59.2152L32.1456 55.0633V35.057L24.9684 39.2025ZM24.9684 39.2025V59.2152L32.1456 55.0633V35.057L24.9684 39.2025ZM24.9684 39.2025V59.2152L32.1456 55.0633V35.057L24.9684 39.2025ZM24.9684 39.2025V59.2152L32.1456 55.0633V35.057L24.9684 39.2025ZM24.9684 39.2025V59.2152L32.1456 55.0633V35.057L24.9684 39.2025ZM24.9684 39.2025V59.2152L32.1456 55.0633V35.057L24.9684 39.2025ZM24.9684 39.2025V59.2152L32.1456 55.0633V35.057L24.9684 39.2025ZM24.9684 39.2025V59.2152L32.1456 55.0633V35.057L24.9684 39.2025ZM24.9684 39.2025V59.2152L32.1456 55.0633V35.057L24.9684 39.2025ZM24.9684 39.2025V59.2152L32.1456 55.0633V35.057L24.9684 39.2025ZM24.9684 39.2025V59.2152L32.1456 55.0633V35.057L24.9684 39.2025ZM24.9684 39.2025V59.2152L32.1456 55.0633V35.057L24.9684 39.2025ZM24.9684 39.2025V59.2152L32.1456 55.0633V35.057L24.9684 39.2025ZM24.9684 39.2025V59.2152L32.1456 55.0633V35.057L24.9684 39.2025ZM24.9684 39.2025V59.2152L32.1456 55.0633V35.057L24.9684 39.2025ZM24.9684 39.2025V59.2152L32.1456 55.0633V35.057L24.9684 39.2025ZM0 18.9873V81.0127C0 91.5 8.5 100 18.9873 100H81.0127C91.5 100 100 91.5 100 81.0127V18.9873C100 8.5 91.5 0 81.0127 0H18.9873C8.5 0 0 8.5 0 18.9873ZM46.5886 55.0633C46.5886 56.5127 46.2532 58.0696 45.5886 59.7405C44.9177 61.4051 44.0443 62.9494 42.9557 64.3734C41.8734 65.7911 40.6899 66.8608 39.4114 67.5823L24.9684 75.9304V86.7848L17.7089 90.9557L10.443 86.7848V30.8544L17.7089 26.6835L19.8734 27.9304C20.3228 27.1646 20.8228 26.4304 21.3797 25.7215C22.4937 24.3038 23.6899 23.2278 24.9684 22.5063L32.1456 18.3354C34.0949 17.2215 35.7911 17.0823 37.2405 17.9177L44.4177 22.0886C45.8671 22.9241 46.5886 24.4557 46.5886 26.6835V55.0633ZM90 63.4114L82.8165 67.5823L75.557 63.4114V35.0506L68.3797 39.2025V75.9304L61.1139 80.1076L53.8544 75.9304V30.8544L61.1139 26.6835L63.2848 27.9304C63.7342 27.1646 64.2278 26.4304 64.7848 25.7215C65.8987 24.3038 67.0949 23.2278 68.3797 22.5063L75.557 18.3354C77.5063 17.2215 79.2025 17.0823 80.6456 17.9177L87.8291 22.0886C89.2722 22.9241 90 24.4557 90 26.6835V63.4114ZM24.9684 59.2152L32.1456 55.0633V35.057L24.9684 39.2025V59.2152ZM24.9684 39.2025V59.2152L32.1456 55.0633V35.057L24.9684 39.2025ZM24.9684 39.2025V59.2152L32.1456 55.0633V35.057L24.9684 39.2025ZM24.9684 39.2025V59.2152L32.1456 55.0633V35.057L24.9684 39.2025ZM24.9684 39.2025V59.2152L32.1456 55.0633V35.057L24.9684 39.2025ZM24.9684 39.2025V59.2152L32.1456 55.0633V35.057L24.9684 39.2025ZM24.9684 39.2025V59.2152L32.1456 55.0633V35.057L24.9684 39.2025ZM24.9684 39.2025V59.2152L32.1456 55.0633V35.057L24.9684 39.2025ZM24.9684 39.2025V59.2152L32.1456 55.0633V35.057L24.9684 39.2025ZM24.9684 39.2025V59.2152L32.1456 55.0633V35.057L24.9684 39.2025ZM24.9684 39.2025V59.2152L32.1456 55.0633V35.057L24.9684 39.2025ZM24.9684 39.2025V59.2152L32.1456 55.0633V35.057L24.9684 39.2025ZM24.9684 39.2025V59.2152L32.1456 55.0633V35.057L24.9684 39.2025ZM24.9684 39.2025V59.2152L32.1456 55.0633V35.057L24.9684 39.2025ZM24.9684 39.2025V59.2152L32.1456 55.0633V35.057L24.9684 39.2025ZM24.9684 39.2025V59.2152L32.1456 55.0633V35.057L24.9684 39.2025ZM24.9684 39.2025V59.2152L32.1456 55.0633V35.057L24.9684 39.2025ZM24.9684 39.2025V59.2152L32.1456 55.0633V35.057L24.9684 39.2025ZM24.9684 39.2025V59.2152L32.1456 55.0633V35.057L24.9684 39.2025ZM24.9684 39.2025V59.2152L32.1456 55.0633V35.057L24.9684 39.2025ZM24.9684 39.2025V59.2152L32.1456 55.0633V35.057L24.9684 39.2025ZM24.9684 39.2025V59.2152L32.1456 55.0633V35.057L24.9684 39.2025ZM24.9684 39.2025V59.2152L32.1456 55.0633V35.057L24.9684 39.2025ZM24.9684 39.2025V59.2152L32.1456 55.0633V35.057L24.9684 39.2025ZM24.9684 39.2025V59.2152L32.1456 55.0633V35.057L24.9684 39.2025ZM24.9684 39.2025V59.2152L32.1456 55.0633V35.057L24.9684 39.2025ZM24.9684 39.2025V59.2152L32.1456 55.0633V35.057L24.9684 39.2025Z" fill="#FF5600"/>
</g>
<defs>
<clipPath id="clip0_34_884">
<rect width="100" height="100" fill="white"/>
</clipPath>
</defs>
</svg>
